<mxfile host="Electron" agent="Mozilla/5.0 (Macintosh; Intel Mac OS X 10_15_7) AppleWebKit/537.36 (KHTML, like Gecko) draw.io/26.1.1 Chrome/132.0.6834.210 Electron/34.3.3 Safari/537.36" version="26.1.1">
  <diagram name="Page-1" id="nXWEfCSaU8grwbbYn3OB">
    <mxGraphModel dx="1114" dy="878" grid="1" gridSize="10" guides="1" tooltips="1" connect="1" arrows="1" fold="1" page="1" pageScale="1" pageWidth="827" pageHeight="1169" math="0" shadow="0">
      <root>
        <mxCell id="0" />
        <mxCell id="1" parent="0" />
        <mxCell id="C4gnFidukyo7pmg_dqT0-1" value="CUDA, cuDNN" style="rounded=0;whiteSpace=wrap;html=1;fillColor=#d5e8d4;strokeColor=none;" vertex="1" parent="1">
          <mxGeometry x="160" y="270" width="100" height="30" as="geometry" />
        </mxCell>
        <mxCell id="C4gnFidukyo7pmg_dqT0-2" value="BLAS, Eigen" style="rounded=0;whiteSpace=wrap;html=1;fillColor=#d5e8d4;strokeColor=none;" vertex="1" parent="1">
          <mxGeometry x="270" y="270" width="100" height="30" as="geometry" />
        </mxCell>
        <mxCell id="C4gnFidukyo7pmg_dqT0-3" value="GPU" style="rounded=0;whiteSpace=wrap;html=1;fillColor=#dae8fc;strokeColor=none;" vertex="1" parent="1">
          <mxGeometry x="160" y="310" width="100" height="30" as="geometry" />
        </mxCell>
        <mxCell id="C4gnFidukyo7pmg_dqT0-4" value="CPU" style="rounded=0;whiteSpace=wrap;html=1;fillColor=#dae8fc;strokeColor=none;" vertex="1" parent="1">
          <mxGeometry x="270" y="310" width="100" height="30" as="geometry" />
        </mxCell>
        <mxCell id="C4gnFidukyo7pmg_dqT0-5" value="텐서플로, JAX, PyTorch ..." style="rounded=0;whiteSpace=wrap;html=1;fillColor=#ffe6cc;strokeColor=none;" vertex="1" parent="1">
          <mxGeometry x="160" y="230" width="210" height="30" as="geometry" />
        </mxCell>
        <mxCell id="C4gnFidukyo7pmg_dqT0-6" value="케라스" style="rounded=0;whiteSpace=wrap;html=1;fillColor=#f8cecc;strokeColor=none;" vertex="1" parent="1">
          <mxGeometry x="160" y="190" width="210" height="30" as="geometry" />
        </mxCell>
        <mxCell id="C4gnFidukyo7pmg_dqT0-7" value="하드웨어" style="text;html=1;align=right;verticalAlign=middle;whiteSpace=wrap;rounded=0;fontStyle=1" vertex="1" parent="1">
          <mxGeometry x="90" y="310" width="60" height="30" as="geometry" />
        </mxCell>
        <mxCell id="C4gnFidukyo7pmg_dqT0-8" value="하드웨어를 위한&lt;div&gt;&lt;span style=&quot;background-color: transparent; color: light-dark(rgb(0, 0, 0), rgb(255, 255, 255));&quot;&gt;라이브러리&lt;/span&gt;&lt;/div&gt;" style="text;html=1;align=right;verticalAlign=middle;whiteSpace=wrap;rounded=0;fontStyle=1" vertex="1" parent="1">
          <mxGeometry x="70" y="270" width="80" height="30" as="geometry" />
        </mxCell>
        <mxCell id="C4gnFidukyo7pmg_dqT0-9" value="백엔드 엔진" style="text;html=1;align=right;verticalAlign=middle;whiteSpace=wrap;rounded=0;fontStyle=1" vertex="1" parent="1">
          <mxGeometry x="70" y="230" width="80" height="30" as="geometry" />
        </mxCell>
        <mxCell id="C4gnFidukyo7pmg_dqT0-10" value="케라스" style="text;html=1;align=right;verticalAlign=middle;whiteSpace=wrap;rounded=0;fontStyle=1" vertex="1" parent="1">
          <mxGeometry x="70" y="190" width="80" height="30" as="geometry" />
        </mxCell>
      </root>
    </mxGraphModel>
  </diagram>
</mxfile>
